# xmcd
#
# Track frame offsets: 
#        150
#        11876
#        25560
#        37002
#        49228
#        60725
#        73078
#        86109
#        96949
#        110728
#        122372
#        134503
#        146536
#        159161
#        169659
#        181482
#        191986
#        203066
#        211736
#        223816
#        234896
#        244808
#        255931
#        265755
#        278812
#        291725
#        305166
#        316042
#        329442
#
# Disc length: 4570 seconds
#
# Revision: 0
# Processed by: cddbd v1.5.1PL2 Copyright (c) Steve Scherf et al.
# Submitted via: ExactAudioCopy v0.95b4
#
DISCID=b711d81d
DTITLE=Various Artist - The Complete Motown Singles Volume 4 [CD20)
DYEAR=2006
DGENRE=R&B/Soul
TTITLE0=The Supremes - Baby Love
TTITLE1=The Supremes - Ask Any Girl
TTITLE2=Mary Wells - Whisper You Love Me Baby
TTITLE3=Mary Wells - I'll Be Available
TTITLE4=Earl Van Dyke - Soul Stomp
TTITLE5=Earl Van Dyke - Hot 'N' Tot
TTITLE6=Marvin Gaye and Kim Weston - What Good Am I Without You
TTITLE7=Marvin Gaye and Kim Weston - I Want You 'Round
TTITLE8=Mickey McCullers - Who You Gonna Run To
TTITLE9=Mickey McCullers - Same Old Story (Alternate Mix)
TTITLE10=The Spinners - Sweet Thing
TTITLE11=The Spinners - How Can I
TTITLE12=The Majestics - Hello Love
TTITLE13=The Majestics - The Further You Look, The Less You See
TTITLE14=The Headliners - Tonight's The Night
TTITLE15=The Headliners - You're Bad News
TTITLE16=The Marvelettes - Too Many Fish In The Sea
TTITLE17=The Marvelettes - A Need For Love
TTITLE18=The Supremes - Come See About Me
TTITLE19=The Supremes - You're Gone (But Always In My Heart)
TTITLE20=Stevie Wonder - Pretty Little Angel (First Pressing)
TTITLE21=Stevie Wonder - Tears In Vain
TTITLE22=Stevie Wonder - Pretty Little Angel (Alternate Mix)
TTITLE23=Four Tops - Without The One You Love
TTITLE24=Four Tops - Love Has Gone
TTITLE25=Marvin Gaye - How Sweet It Is (To Be Loved By You)
TTITLE26=Marvin Gaye - Forever
TTITLE27=Kim Weston - A Little More Love
TTITLE28=Kim Weston - Go Ahead And Laugh
EXTD=
EXTT0=
EXTT1=
EXTT2=
EXTT3=
EXTT4=
EXTT5=
EXTT6=
EXTT7=
EXTT8=
EXTT9=
EXTT10=
EXTT11=
EXTT12=
EXTT13=
EXTT14=
EXTT15=
EXTT16=
EXTT17=
EXTT18=
EXTT19=
EXTT20=
EXTT21=
EXTT22=
EXTT23=
EXTT24=
EXTT25=
EXTT26=
EXTT27=
EXTT28=
PLAYORDER=
